<!--?xml version="1.0" encoding="utf-8"?-->
<!-- Generator: Adobe Illustrator 19.1.1, SVG Export Plug-In . SVG Version: 6.00 Build 0)  -->
<svg version="1.1" id="_x31_0" xmlns="http://www.w3.org/2000/svg" xmlns:xlink="http://www.w3.org/1999/xlink" x="0px" y="0px" viewBox="0 0 512 512" style="width: 64px; height: 64px; opacity: 1;" xml:space="preserve">
<style type="text/css">
	.st0{fill:#374149;}
</style>
<g>
	<path class="st0" d="M39.444,353.674c-0.515-0.621-1.434-0.73-2.086-0.242l-4.711,3.789c-0.625,0.516-0.734,1.438-0.218,2.059
		l3.766,4.742c0.515,0.622,1.438,0.731,2.058,0.215l4.738-3.766c0.625-0.512,0.734-1.434,0.218-2.082L39.444,353.674z" style="fill: rgb(0, 0, 0);"></path>
	<path class="st0" d="M476.608,353.674c-0.516-0.621-1.434-0.73-2.059-0.242l-4.738,3.789c-0.626,0.516-0.734,1.438-0.219,2.059
		l3.766,4.742c0.516,0.622,1.438,0.731,2.086,0.215l4.71-3.766c0.626-0.512,0.734-1.434,0.219-2.082L476.608,353.674z" style="fill: rgb(0, 0, 0);"></path>
	<path class="st0" d="M510.877,365.427l-94.559-241.984c-0.89-2.277-2.301-4.332-4.086-5.984L355.674,64.83l-24.133-30.149
		c-3.141-3.926-7.855-6.094-12.703-6.094c-1.73,0-3.496,0.274-5.199,0.867c-3.633,1.246-6.637,3.656-8.586,6.774l-49.055,18.554
		l-49.078-18.554c-2.004-3.226-5.094-5.688-8.859-6.883c-1.626-0.511-3.274-0.758-4.898-0.758c-4.852,0-9.563,2.168-12.703,6.094
		L156.327,64.83l-56.559,52.629c-1.785,1.652-3.195,3.707-4.09,5.984L1.124,365.427c-1.762,4.496-1.438,9.508,0.867,13.73
		c2.328,4.227,6.39,7.207,11.102,8.129l58.562,11.59c1.054,0.218,2.11,0.328,3.141,0.328c6.718,0,12.867-4.172,15.25-10.672
		l17.055-48.546l16.534-46.606c-7.878,63.168-29.554,131.125-29.797,131.851c-1.789,5.309-0.706,11.187,2.871,15.519
		c18.715,22.727,52.492,39.383,86.078,42.418c1.758,0.16,3.574,0.242,5.336,0.242c20.258,0,38.57-10.563,51.515-29.766
		c5.582-8.262,10.168-18.199,13.824-29.582c0.902-2.687,1.794-5.394,2.606-8.246c3.95,14.958,9.394,27.618,16.29,37.829
		c12.949,19.202,31.258,29.766,51.519,29.766c1.762,0,3.574-0.082,5.336-0.242c33.586-3.035,67.363-19.691,86.078-42.418
		c3.574-4.332,4.66-10.21,2.871-15.519c-0.195-0.582-14.023-44.09-23.617-93.718c-2.375-12.508-4.477-25.383-6.008-38.09
		l33.414,95.11c2.387,6.5,8.535,10.672,15.25,10.672c1.031,0,2.086-0.11,3.145-0.328l58.558-11.59
		c4.71-0.922,8.774-3.902,11.106-8.129C512.311,374.935,512.639,369.923,510.877,365.427z M495.737,371.365l-58.535,11.586
		l-9.477-25.852l-1.414-3.918l58.023-11.047l9.774,24.992L495.737,371.365z M364.424,356.705l-41.168,6.285
		c-3.874,0.598-7.476-2.113-7.992-5.988l-1.355-10.156c-0.082-0.622,0.379-1.219,1.004-1.274l54.117-6.176
		c0.622-0.05,1.191,0.379,1.274,1.004l0.946,7.18C371.846,351.994,368.811,356.029,364.424,356.705z M181.893,138.99
		c1.41-2.52,0.598-5.688-1.84-7.23l-12.649-7.91l2.79-50.297l21.937-27.41l1.032-1.301c0,0,0.675,10.832,1.894,27.438
		c1.301,17.309,3.168,40.844,5.527,64.926c7.176,73.398,46.558,144.012,46.558,144.012s0,2.554,0,12.805l-0.137,10.843
		l-78.98-141.034L181.893,138.99z M268.405,233.76c0.027-3.962,0.054-7.989,0.054-12.051c0-55.309-2.058-92.309-6.148-109.453
		l8.07-14.004l3.347,7.5l0.938,2.211l0.035-0.028l0.07,0.153l15.043-12.782l10.511-8.789c-1.082,14.516-2.675,31.434-5.023,48.492
		c-4.238,30.957-12.535,59.703-20.824,82.938C272.405,223.658,270.35,229.018,268.405,233.76z M308.139,65.534l-6.774,5.742
		l-17.687,15.039l-4.918,4.125l-11.816-26.503l-0.645-1.466l36.153-13.675l6.582-2.492L308.139,65.534z M243.46,235.08
		c-10.778-26.168-23.118-62.652-26.707-99.449c-1.68-17.09-3.114-33.965-4.254-48.535l19.102,16.21l5.485,4.715l0.019-0.043
		l0.125,0.11l2.798-6.27l1.648-3.469l8.043,13.934c-4.094,17.172-6.18,54.145-6.18,109.426c0,3.332,0.023,6.59,0.043,9.855
		C243.545,232.736,243.526,233.912,243.46,235.08z M245.705,62.478l-9.789,21.954l-2.73,6.019l-21.825-18.55l-7.503-6.367
		l-0.891-19.23l6.742,2.546l34.434,13.031L245.705,62.478z M255.998,364.564c4.891,0,8.86,3.965,8.86,8.855
		c0,4.895-3.969,8.86-8.86,8.86c-4.89,0-8.855-3.965-8.855-8.86C247.143,368.529,251.108,364.564,255.998,364.564z M255.998,337.201
		c-4.89,0-8.855-3.969-8.855-8.859c0-4.89,3.965-8.855,8.855-8.855c4.891,0,8.86,3.965,8.86,8.855
		C264.858,333.232,260.889,337.201,255.998,337.201z M195.381,357.002c-0.516,3.875-4.118,6.586-7.992,5.988l-41.168-6.285
		c-4.363-0.676-7.422-4.711-6.824-9.125l0.945-7.18c0.082-0.625,0.653-1.054,1.274-1.004l54.117,6.176
		c0.649,0.054,1.086,0.652,1.004,1.274L195.381,357.002z M264.858,304.822c0-19.504,0-23.606,0-23.606s35.671-64.516,46.558-144.012
		c3.305-24.297,5.199-48.133,6.23-65.523c0.976-16.25,1.191-26.84,1.191-26.84l1.027,1.301l21.942,27.41l2.789,50.297l-12.648,7.91
		c-2.438,1.542-3.25,4.71-1.84,7.23l13.867,24.84l-42.258,75.453L264.858,304.822z M16.249,371.334l11.418-29.199l49.988,9.512
		l8.074,1.562l-10.934,29.742l-49.859-9.871L16.249,371.334z" style="fill: rgb(0, 0, 0);"></path>
</g>
</svg>
