<!--?xml version="1.0" encoding="utf-8"?-->
<!-- Generator: Adobe Illustrator 18.1.1, SVG Export Plug-In . SVG Version: 6.00 Build 0)  -->

<svg version="1.1" id="_x31_0" xmlns="http://www.w3.org/2000/svg" xmlns:xlink="http://www.w3.org/1999/xlink" x="0px" y="0px" viewBox="0 0 512 512" style="width: 64px; height: 64px; opacity: 1;" xml:space="preserve">
<style type="text/css">
	.st0{fill:#374149;}
</style>
<g>
	<path class="st0" d="M171.869,81.056c0.102-1.008,0.242-2.004,0.301-3.019h-0.016c0.004-0.051,0.016-0.106,0.016-0.157h-55.202
		l-1.516-0.008v0.008h-0.16l1.762,65.112C146.433,136.5,168.877,111.604,171.869,81.056z" style="fill: rgb(0, 0, 0);"></path>
	<rect x="250.081" y="80.036" class="st0" width="19.92" height="100.953" style="fill: rgb(0, 0, 0);"></rect>
	<path class="st0" d="M117.533,159.233L127.29,512h96.554V250.826c0-0.934,0.086-1.867,0.172-2.793
		c0.058-0.605,0.129-1.21,0.218-1.824c0.141-0.922,0.278-1.843,0.488-2.746c1.442-6.238,4.801-11.761,9.281-15.998V77.88h-45.836
		C186.406,118.518,156.487,152.03,117.533,159.233z" style="fill: rgb(0, 0, 0);"></path>
	<path class="st0" d="M323.836,77.88h-37.837v119.107h-35.918v16.764l-0.066,6.851c0.027-0.011,0.043-0.031,0.066-0.042v0.187
		c1.41-0.637,2-2.082,5.922-2.082c0.961,0,1.839,0.082,2.718,0.164c3.758,0.32,7.281,1.277,10.558,2.796
		c0.801,0.321,1.602,0.719,2.402,1.203c0.797,0.477,1.519,0.875,2.238,1.438c0.722,0.48,1.442,0.961,2.082,1.519
		c0.962,0.641,1.84,1.442,2.719,2.32c1.359,1.359,2.558,2.722,3.601,4.238c3.679,5.281,5.839,11.678,5.839,18.482V512h96.55
		l9.758-352.767C355.514,152.03,325.594,118.518,323.836,77.88z" style="fill: rgb(0, 0, 0);"></path>
	<path class="st0" d="M342.792,77.88l-2.797-0.011l0.004,0.011h-0.164c1.679,31.998,24.716,58.394,55.116,65.112l1.707-63.245
		l0.05-1.71h-0.004l0.004-0.157H342.792z" style="fill: rgb(0, 0, 0);"></path>
	<path class="st0" d="M142.652,50.922h7.999h10.499h45.817c-0.222-0.766-0.379-1.578-0.519-2.39
		c-0.078-0.442-0.133-0.883-0.184-1.328c-0.09-0.805-0.18-1.61-0.18-2.442V6.206c0-1.89,0.282-3.695,0.719-5.406
		c0.066-0.191,0.09-0.41,0.164-0.594h-0.035c0.015-0.055,0.019-0.11,0.035-0.164H161.15h-10.499h-7.999h-8.862h-18.498v50.878
		h18.498H142.652z" style="fill: rgb(0, 0, 0);"></path>
	<path class="st0" d="M390.952,0.043h-21.6h-7.999h-26.717h-22.994L305.19,0c0.007,0.016,0.004,0.031,0.007,0.043h-0.16
		c0.203,0.691,0.332,1.422,0.469,2.152c0.106,0.574,0.184,1.148,0.246,1.73c0.078,0.75,0.164,1.5,0.164,2.281v38.555
		c0,1.887-0.282,3.695-0.715,5.406c-0.066,0.191-0.086,0.406-0.164,0.594h0.035c-0.015,0.05-0.019,0.109-0.035,0.16h29.599h26.717
		h7.999h21.6h5.757V0.043H390.952z" style="fill: rgb(0, 0, 0);"></path>
	<path class="st0" d="M227.684,50.359h56.636c3.117,0,5.597-2.477,5.597-5.598V6.206c0-3.121-2.48-5.601-5.597-5.601h-56.636
		c-3.121,0-5.601,2.48-5.601,5.601v38.555C222.083,47.882,224.563,50.359,227.684,50.359z" style="fill: rgb(0, 0, 0);"></path>
</g>
</svg>
