<!--?xml version="1.0" encoding="utf-8"?-->
<!-- Generator: Adobe Illustrator 18.1.1, SVG Export Plug-In . SVG Version: 6.00 Build 0)  -->

<svg version="1.1" id="_x31_0" xmlns="http://www.w3.org/2000/svg" xmlns:xlink="http://www.w3.org/1999/xlink" x="0px" y="0px" viewBox="0 0 512 512" style="width: 64px; height: 64px; opacity: 1;" xml:space="preserve">
<style type="text/css">
	.st0{fill:#374149;}
</style>
<g>
	<path class="st0" d="M510.474,216.776c-0.718-6.879-6.878-11.922-13.922-11.043c-17.277,2.164-33.918,3.203-49.437,3.203
		c-32.023,0-56.762-4.453-76.694-10.582c-2.989-0.938-5.946-1.926-8.867-2.988l5.48-6.672c3.922-4.719,5.442-10.879,4.161-16.879
		c-1.278-6-5.199-10.961-10.797-13.601l-35.922-17.438c-6.242-2.961-13.68-2.562-19.442,1.278l-35.437,22.882
		c-0.387,0.129-0.77,0.234-1.157,0.382c-0.121-0.004-0.304-0.031-0.476-0.058l-0.207-0.164c-3.762-2.801-8.242-4.32-12.961-4.32
		c-7.039,0-13.84,3.519-18.16,9.277c-2.558,3.363-4.082,7.363-4.481,11.363l-4.238,2.16c-1.282,0.637-2.481,1.278-3.762,1.84
		c-0.398,0.238-0.878,0.481-1.281,0.719l-1.278-0.962c-3.84-2.801-8.32-4.238-12.961-4.238c-7.121,0-13.839,3.437-18.238,9.199
		c-2.801,3.762-4.402,8.238-4.481,13.038c-1.043,0.321-2.082,0.801-3.203,1.282c-1.438,0.641-2.878,1.199-4.316,1.84
		c0,0-0.402,0.16-1.122,0.398l-1.922-1.438c-3.758-2.723-8.238-4.242-12.878-4.242c-7.122,0-13.84,3.442-18.242,9.199
		c-2.156,3.043-3.598,6.32-4.238,9.84c-0.878,0.32-1.84,0.562-2.718,0.882c0,0-4.961,1.438-10.32,3.039
		c-3.199-1.84-6.879-2.879-10.641-2.879c-7.121,0-13.84,3.52-18.32,9.359c-0.398,0.559-0.801,1.199-1.199,1.84
		c-13.762,3.52-28.718,6.801-44.961,9.918c-13.84,2.722-25.437,6.242-34.398,10.562c-10.64,5.199-16.8,16.16-15.601,27.999
		c0,0.16,0,0.321,0.082,0.481c-1.121,2.558-4.402,45.519,1.52,61.038c7.199,18.718,55.917,30.878,163.275,30.878h314.158
		c6,0,11.922-2.48,16.082-6.801c4.16-4.398,6.32-9.918,6.078-15.519v-32.32l0.961-3.598c0.48-2.16,1.039-4.32,1.519-6.48
		C513.513,272.213,512.712,238.854,510.474,216.776z M109.599,238.936c1.598-2.242,4.078-3.442,6.718-3.442
		c1.602,0,3.039,0.481,4.32,1.359l14.961,11.122l5.758,4.32c1.68,1.199,2.723,3.039,2.962,5.121c0.32,2.16-0.321,4.317-1.68,6.078
		c-2.558,3.519-7.762,4.48-11.121,2.082l-15.438-11.601l-5.281-3.84c-1.602-1.199-2.641-3.039-2.879-5.039
		C107.677,242.936,108.235,240.694,109.599,238.936z M208.637,195.257c1.598,0,3.122,0.558,4.398,1.438l0.321,0.32l17.359,12.801
		l3.042,2.32c1.598,1.199,2.641,2.961,2.879,5.122c0.238,2.078-0.321,4.238-1.68,6.078c-2.558,3.442-7.762,4.398-11.038,2
		l-10.082-7.519l-10.64-7.918c-1.68-1.202-2.641-2.961-2.879-5.042c-0.16-0.641-0.16-1.278,0-1.84
		c0.082-1.519,0.718-3.039,1.602-4.32C203.516,196.535,206.079,195.257,208.637,195.257z M317.699,150.98
		c0.535,0.125,1.07,0.27,1.578,0.515l35.999,17.442c2.238,1.039,3.758,3.039,4.321,5.438c0.48,2.402-0.082,4.882-1.68,6.722
		l-8.242,9.84c-10.8-4.481-19.918-9.282-28.16-13.52c-9.152-4.781-17.265-8.886-25.097-11.386c-1.442-0.492-2.891-1.023-4.313-1.406
		l19.41-12.648c1.679-1.043,3.691-1.43,5.613-1.125C317.323,150.883,317.507,150.933,317.699,150.98z M282.875,197.097
		c0.242,2.078-0.398,4.32-1.679,6.16c-2.641,3.438-7.84,4.398-11.118,2l-12.082-8.961l-8.641-6.481
		c-1.598-1.199-2.641-2.961-2.878-5.039c-0.242-1.519,0-3.042,0.558-4.402c0.32-0.641,0.641-1.199,1.043-1.758
		c1.598-2.16,4.156-3.441,6.718-3.441c0.718,0,1.359,0.082,2.078,0.32c0.801,0.16,1.602,0.558,2.321,1.039l15.441,11.519l5.282,4
		C281.515,193.175,282.555,195.015,282.875,197.097z M461.057,240.588c-9.278,4.34-157.819,73.09-196.022,46.668
		c-31.118-21.523,3.363-59.202,3.363-59.202c-1.442,22.8,8.476,42.96,34.238,39.761c37.281-4.644,115.69-19.246,146.26-25.034
		C455.279,241.608,459.623,240.816,461.057,240.588z M14.639,325.334c13.839,8.718,37.519,13.442,57.761,16.082
		c20.316,2.559,37.277,2.958,37.679,2.958c3.278,0,5.918-2.719,5.918-6c0-3.278-2.641-5.918-5.918-5.918
		c-27.762,0-86.319-7.839-94.722-22.242c-0.238-0.481-0.558-0.797-0.957-1.199c0.21-2.223,0.457-4.402,0.785-6.45
		c0.058-0.238,0.082-0.488,0.145-0.722c2.148,1.266,4.609,2.297,7.148,3.012c28.641,7.359,74.8,16.082,132.319,16.082h332.395v30.16
		c0.082,2.16-1.039,3.598-1.598,4.238c-1.281,1.281-2.961,2-4.722,2H166.715c-109.998,0-144.955-15.758-149.198-22.879
		C15.999,331.975,15.119,328.853,14.639,325.334z M154.399,221.417c0.317-0.883,0.797-1.762,1.359-2.562
		c1.598-2.238,4.078-3.52,6.719-3.52c1.602,0,3.121,0.562,4.398,1.442l18.082,13.519l2.641,1.918
		c3.359,2.562,3.918,7.519,1.199,11.202c-2.641,3.52-7.762,4.481-11.039,2l-10.961-8.16l-9.762-7.202
		C154.399,228.054,153.439,224.616,154.399,221.417z" style="fill: rgb(0, 0, 0);"></path>
</g>
</svg>
