<svg xmlns="http://www.w3.org/2000/svg" data-name="Layer 4" viewBox="0 0 25 31.25" x="0px" y="0px"><title>More</title><path d="M12,12H6V6h6ZM7,11h4V7H7Z"/><path d="M9,19a3,3,0,1,1,3-3A3,3,0,0,1,9,19Zm0-5a2,2,0,1,0,2,2A2,2,0,0,0,9,14Z"/><path d="M19,19H13V13h6Zm-5-1h4V14H14Z"/><path d="M16,12a3,3,0,1,1,3-3A3,3,0,0,1,16,12Zm0-5a2,2,0,1,0,2,2A2,2,0,0,0,16,7Z"/><text x="0" y="40" fill="#000000" font-size="5px" font-weight="bold" font-family="'Helvetica Neue', Helvetica, Arial-Unicode, Arial, Sans-serif">Created by M Yudi Maulana</text><text x="0" y="45" fill="#000000" font-size="5px" font-weight="bold" font-family="'Helvetica Neue', Helvetica, Arial-Unicode, Arial, Sans-serif">from the Noun Project</text></svg>